<?xml version="1.0" encoding="UTF-8" standalone="no"?>
<svg
   xmlns:dc="http://purl.org/dc/elements/1.1/"
   xmlns:cc="http://creativecommons.org/ns#"
   xmlns:rdf="http://www.w3.org/1999/02/22-rdf-syntax-ns#"
   xmlns:svg="http://www.w3.org/2000/svg"
   xmlns="http://www.w3.org/2000/svg"
   xmlns:sodipodi="http://sodipodi.sourceforge.net/DTD/sodipodi-0.dtd"
   xmlns:inkscape="http://www.inkscape.org/namespaces/inkscape"
   width="100"
   height="100"
   viewBox="0 0 26.458333 26.458334"
   version="1.1"
   id="svg8"
   inkscape:version="1.0.2-2 (e86c870879, 2021-01-15)"
   sodipodi:docname="logo.svg">
  <defs
     id="defs2" />
  <sodipodi:namedview
     id="base"
     pagecolor="#ffffff"
     bordercolor="#666666"
     borderopacity="1.0"
     inkscape:pageopacity="0.0"
     inkscape:pageshadow="2"
     inkscape:zoom="3.959798"
     inkscape:cx="52.146929"
     inkscape:cy="75.509895"
     inkscape:document-units="mm"
     inkscape:current-layer="layer1"
     inkscape:document-rotation="0"
     showgrid="false"
     units="px"
     inkscape:window-width="1920"
     inkscape:window-height="1027"
     inkscape:window-x="-8"
     inkscape:window-y="1072"
     inkscape:window-maximized="1" />
  <metadata
     id="metadata5">
    <rdf:RDF>
      <cc:Work
         rdf:about="">
        <dc:format>image/svg+xml</dc:format>
        <dc:type
           rdf:resource="http://purl.org/dc/dcmitype/StillImage" />
        <dc:title></dc:title>
      </cc:Work>
    </rdf:RDF>
  </metadata>
  <g
     inkscape:label="Layer 1"
     inkscape:groupmode="layer"
     id="layer1">
    <rect
       style="fill:#ffffff;fill-opacity:1;stroke-width:1.87356"
       id="rect840"
       width="26.458334"
       height="26.458334"
       x="-3.1789145e-07"
       y="-3.1789145e-07" />
    <path
       id="rect833"
       style="fill:#000000;fill-opacity:1;stroke-width:0.931718"
       d="M 10 10 L 10 35.638672 A 42.500001 42.500001 0 0 1 35.636719 10 L 10 10 z M 64.361328 10 A 42.500001 42.500001 0 0 1 90 35.636719 L 90 10 L 64.361328 10 z M 90 64.361328 A 42.500001 42.500001 0 0 1 64.363281 90 L 90 90 L 90 64.361328 z M 10 64.363281 L 10 90 L 35.638672 90 A 42.500001 42.500001 0 0 1 10 64.363281 z "
       transform="scale(0.26458333)" />
    <circle
       style="fill:#000000;fill-opacity:1;stroke-width:0.702377"
       id="path838"
       cx="13.229167"
       cy="13.229167"
       r="7.9375" />
  </g>
</svg>
